<?xml version="1.0" encoding="utf-8"?>
<!-- Generator: Adobe Illustrator 15.0.2, SVG Export Plug-In . SVG Version: 6.00 Build 0)  -->
<!DOCTYPE svg PUBLIC "-//W3C//DTD SVG 1.1//EN" "http://www.w3.org/Graphics/SVG/1.1/DTD/svg11.dtd">
<svg version="1.1" xmlns="http://www.w3.org/2000/svg" xmlns:xlink="http://www.w3.org/1999/xlink" x="0px" y="0px"
	 width="563.03px" height="459.154px" viewBox="0 0 563.03 459.154" enable-background="new 0 0 563.03 459.154"
	 xml:space="preserve">
<g id="Backup" display="none">
	<g display="inline">
		<text transform="matrix(1 0 0 1 104.8423 401.228)" font-family="'MyriadApple-Medium'" font-size="69.0429">SensorCloud</text>
		<text transform="matrix(1 0 0 1 104.8423 401.228)" fill="#97999B" font-family="'MyriadApple-Medium'" font-size="69.0429">SensorCloud</text>
	</g>
</g>
<g id="Hintergrund_Kopie" display="none">
	<rect x="-8.132" y="-121.883" display="inline" width="595.28" height="841.89"/>
</g>
<g id="SensorCloud">
	<g>
		<path d="M142.972,388.524c0,3.821-1.335,6.951-4.004,9.39c-2.9,2.579-6.928,3.867-12.083,3.867c-4.833,0-8.7-0.943-11.6-2.831
			l1.519-4.971c3.13,1.979,6.628,2.969,10.495,2.969c2.992,0,5.339-0.726,7.042-2.175c1.702-1.45,2.555-3.372,2.555-5.766
			c0-2.163-0.668-3.958-2.002-5.385c-1.335-1.427-3.545-2.716-6.628-3.867c-8.056-3.037-12.083-7.433-12.083-13.187
			c0-3.636,1.381-6.64,4.143-9.011c2.762-2.37,6.352-3.556,10.771-3.556c4.096,0,7.433,0.737,10.011,2.21l-1.657,4.901
			c-2.394-1.473-5.247-2.209-8.561-2.209c-2.854,0-5.086,0.76-6.697,2.278c-1.289,1.289-1.933,2.854-1.933,4.695
			c0,2.071,0.713,3.797,2.14,5.178c1.334,1.197,3.636,2.463,6.904,3.798c4.004,1.611,6.95,3.476,8.837,5.592
			C142.028,382.564,142.972,385.256,142.972,388.524z"/>
		<path d="M175.98,382.586c0,1.197-0.069,2.187-0.207,2.969h-22.922c0.092,3.913,1.243,6.882,3.452,8.906
			c1.934,1.796,4.533,2.693,7.802,2.693c3.314,0,6.305-0.553,8.976-1.657l1.036,4.28c-2.993,1.289-6.628,1.934-10.909,1.934
			c-4.971,0-8.896-1.507-11.771-4.522c-2.877-3.014-4.315-7.077-4.315-12.186c0-5.201,1.392-9.494,4.177-12.877
			c2.784-3.383,6.524-5.074,11.219-5.074c4.74,0,8.308,1.818,10.702,5.454C175.06,375.314,175.98,378.674,175.98,382.586z
			 M170.181,381.206c0.045-2.531-0.483-4.671-1.588-6.421c-1.427-2.255-3.614-3.383-6.559-3.383c-2.762,0-4.971,1.104-6.628,3.313
			c-1.335,1.795-2.164,3.959-2.485,6.49H170.181z"/>
		<path d="M209.769,401.228h-6.006v-19.401c0-6.535-2.509-9.804-7.526-9.804c-2.394,0-4.384,0.909-5.972,2.728
			s-2.382,3.924-2.382,6.317v20.16h-6.007v-24.372c0-2.762-0.093-5.776-0.276-9.045h5.316l0.345,5.386h0.138
			c0.92-1.702,2.254-3.107,4.004-4.212c2.025-1.242,4.303-1.864,6.835-1.864c2.945,0,5.431,0.922,7.457,2.762
			c2.715,2.485,4.073,6.238,4.073,11.254V401.228z"/>
		<path d="M236.378,391.908c0,2.992-1.104,5.385-3.314,7.18c-2.209,1.796-5.225,2.693-9.045,2.693c-3.545,0-6.605-0.714-9.183-2.141
			l1.45-4.557c2.485,1.565,5.109,2.348,7.871,2.348c4.281,0,6.421-1.657,6.421-4.972c0-1.426-0.46-2.6-1.381-3.521
			c-0.921-0.92-2.485-1.795-4.695-2.623c-5.846-2.21-8.769-5.361-8.769-9.459c0-2.762,1.046-5.075,3.142-6.938
			c2.094-1.864,4.844-2.797,8.25-2.797c3.176,0,5.869,0.668,8.078,2.003l-1.519,4.418c-2.026-1.288-4.258-1.933-6.697-1.933
			c-1.704,0-3.038,0.426-4.005,1.277c-0.966,0.852-1.45,1.944-1.45,3.279c0,1.289,0.506,2.348,1.519,3.176
			c0.829,0.783,2.393,1.612,4.695,2.485C233.501,384.083,236.378,387.443,236.378,391.908z"/>
		<path d="M272.177,384.244c0,5.109-1.405,9.298-4.211,12.565c-2.993,3.36-6.997,5.04-12.014,5.04
			c-4.833,0-8.699-1.633-11.599-4.901c-2.716-3.222-4.074-7.272-4.074-12.152c0-5.108,1.404-9.297,4.212-12.565
			c2.991-3.405,6.996-5.109,12.013-5.109c4.833,0,8.7,1.657,11.599,4.972C270.818,375.268,272.177,379.319,272.177,384.244z
			 M266.032,384.451c0-3.359-0.783-6.236-2.347-8.631c-1.795-2.807-4.281-4.211-7.457-4.211c-3.269,0-5.8,1.404-7.595,4.211
			c-1.565,2.395-2.348,5.316-2.348,8.769c0,3.314,0.805,6.191,2.417,8.631c1.795,2.808,4.281,4.212,7.457,4.212
			c3.13,0,5.615-1.427,7.457-4.281C265.226,390.665,266.032,387.765,266.032,384.451z"/>
		<path d="M294.518,372.92c-0.599-0.092-1.289-0.138-2.071-0.138c-2.716,0-4.81,1.128-6.283,3.383
			c-1.335,1.979-2.002,4.373-2.002,7.181v17.882h-5.938v-23.129c0-3.591-0.093-7.02-0.276-10.288h5.316l0.276,6.49h0.207
			c0.735-2.209,1.944-3.958,3.625-5.247c1.68-1.288,3.508-1.934,5.488-1.934c0.645,0,1.196,0.047,1.657,0.139V372.92z"/>
		<path d="M332.062,356.005l-1.449,4.833c-2.578-1.243-5.593-1.864-9.045-1.864c-5.386,0-9.644,1.656-12.772,4.971
			c-3.27,3.407-4.902,8.147-4.902,14.223c0,5.8,1.541,10.368,4.626,13.705c3.083,3.338,7.341,5.006,12.772,5.006
			c3.773,0,6.95-0.621,9.528-1.864l1.174,4.764c-2.854,1.336-6.836,2.003-11.944,2.003c-6.629,0-11.969-1.956-16.019-5.869
			c-4.28-4.234-6.421-10.08-6.421-17.537c0-7.363,2.197-13.267,6.594-17.709c4.396-4.441,10.115-6.663,17.157-6.663
			C326.009,354.002,329.577,354.67,332.062,356.005z"/>
		<path d="M342.929,401.228h-6.007v-48.951h6.007V401.228z"/>
		<path d="M381.076,384.244c0,5.109-1.404,9.298-4.212,12.565c-2.992,3.36-6.997,5.04-12.014,5.04
			c-4.833,0-8.699-1.633-11.599-4.901c-2.717-3.222-4.073-7.272-4.073-12.152c0-5.108,1.403-9.297,4.211-12.565
			c2.992-3.405,6.996-5.109,12.014-5.109c4.833,0,8.699,1.657,11.6,4.972C379.717,375.268,381.076,379.319,381.076,384.244z
			 M374.931,384.451c0-3.359-0.783-6.236-2.348-8.631c-1.795-2.807-4.281-4.211-7.457-4.211c-3.269,0-5.8,1.404-7.595,4.211
			c-1.565,2.395-2.348,5.316-2.348,8.769c0,3.314,0.806,6.191,2.417,8.631c1.795,2.808,4.28,4.212,7.457,4.212
			c3.129,0,5.614-1.427,7.456-4.281C374.125,390.665,374.931,387.765,374.931,384.451z"/>
		<path d="M414.775,401.228h-5.316l-0.345-5.316h-0.207c-2.303,3.959-5.893,5.938-10.771,5.938c-3.13,0-5.661-0.942-7.595-2.83
			c-2.439-2.486-3.659-6.328-3.659-11.53v-19.678h6.007v18.573c0,7.088,2.417,10.632,7.25,10.632c1.84,0,3.521-0.598,5.04-1.795
			c1.288-1.012,2.209-2.255,2.762-3.729c0.367-0.92,0.552-1.955,0.552-3.106v-20.575h6.007v24.304
			C414.499,395.107,414.59,398.145,414.775,401.228z"/>
		<path d="M451.415,401.228h-5.385l-0.276-5.661h-0.138c-2.164,4.188-5.847,6.282-11.047,6.282c-4.051,0-7.399-1.553-10.046-4.66
			c-2.647-3.106-3.97-7.169-3.97-12.186c0-5.431,1.449-9.827,4.35-13.188c2.762-3.13,6.189-4.695,10.287-4.695
			c4.695,0,7.963,1.657,9.804,4.972h0.139v-19.815h6.007v40.39C451.139,395.705,451.231,398.559,451.415,401.228z M445.132,387.35
			v-6.007c0-1.012-0.069-1.863-0.207-2.554c-0.461-1.979-1.462-3.636-3.004-4.972c-1.542-1.334-3.395-2.002-5.558-2.002
			c-2.993,0-5.375,1.208-7.146,3.625c-1.772,2.416-2.658,5.488-2.658,9.217c0,3.59,0.829,6.514,2.486,8.769
			c1.748,2.485,4.143,3.729,7.18,3.729c2.624,0,4.787-1.012,6.49-3.038C444.327,392.23,445.132,389.974,445.132,387.35z"/>
	</g>
</g>
<g id="Strahlen">
	<g id="Hintergrund" display="none">
		<rect x="-8.132" y="-121.883" display="inline" width="595.28" height="841.89"/>
	</g>
	<g id="Mitte_3_">
		<defs>
			
				<rect id="SVGID_1_" x="198.452" y="190.345" transform="matrix(0.766 0.6428 -0.6428 0.766 248.7599 -120.324)" width="182.441" height="182.445"/>
		</defs>
		<clipPath id="SVGID_2_">
			<use xlink:href="#SVGID_1_"  overflow="visible"/>
		</clipPath>
		<g clip-path="url(#SVGID_2_)">
			<path display="none" fill="none" stroke="#000000" stroke-width="3" stroke-miterlimit="10" d="M342.95,165.182
				c0,35.357-28.665,64.027-64.028,64.027s-64.027-28.67-64.027-64.027c0-35.362,28.664-64.027,64.027-64.027
				S342.95,129.82,342.95,165.182z"/>
			<path display="none" fill="none" stroke="#000000" stroke-width="3" stroke-miterlimit="10" d="M362.806,165.182
				c0,46.324-37.556,83.883-83.885,83.883c-46.33,0-83.883-37.56-83.883-83.883c0-46.329,37.553-83.884,83.883-83.884
				C325.25,81.298,362.806,118.854,362.806,165.182z"/>
			<path fill="none" stroke="#000000" stroke-width="3" stroke-miterlimit="10" d="M382.662,165.182
				c0,57.291-46.445,103.741-103.74,103.741c-57.296,0-103.739-46.45-103.739-103.741c0-57.295,46.443-103.74,103.739-103.74
				C336.216,61.442,382.662,107.887,382.662,165.182z"/>
			
				<circle display="none" fill="none" stroke="#000000" stroke-width="3" stroke-miterlimit="10" cx="278.923" cy="165.182" r="123.596"/>
		</g>
	</g>
	<g id="rechts_4_">
		<defs>
			
				<rect id="SVGID_3_" x="407.779" y="224.264" transform="matrix(0.2924 0.9563 -0.9563 0.2924 609.5028 -247.1791)" width="127.992" height="127.999"/>
		</defs>
		<clipPath id="SVGID_4_">
			<use xlink:href="#SVGID_3_"  overflow="visible"/>
		</clipPath>
		<g clip-path="url(#SVGID_4_)">
			<path fill="none" stroke="#000000" stroke-width="3" stroke-miterlimit="10" d="M436.034,245.777
				c0,24.39-19.775,44.167-44.174,44.167c-24.397,0-44.171-19.777-44.171-44.167c0-24.396,19.773-44.171,44.171-44.171
				C416.258,201.606,436.034,221.381,436.034,245.777z"/>
			<path display="none" fill="none" stroke="#000000" stroke-width="3" stroke-miterlimit="10" d="M455.889,245.777
				c0,35.355-28.664,64.022-64.029,64.022c-35.363,0-64.027-28.667-64.027-64.022c0-35.363,28.664-64.027,64.027-64.027
				C427.225,181.75,455.889,210.414,455.889,245.777z"/>
			<path fill="none" stroke="#000000" stroke-width="3" stroke-miterlimit="10" d="M475.747,245.777
				c0,46.32-37.557,83.877-83.887,83.877s-83.883-37.557-83.883-83.877c0-46.329,37.553-83.884,83.883-83.884
				S475.747,199.448,475.747,245.777z"/>
		</g>
	</g>
	<g id="oben_7_">
		<g>
			<defs>
				<path id="SVGID_5_" d="M228.966,22.312l93.448,135.406L457.82,64.266C406.206-10.521,303.75-29.301,228.966,22.312"/>
			</defs>
			<clipPath id="SVGID_6_">
				<use xlink:href="#SVGID_5_"  overflow="visible"/>
			</clipPath>
			<g clip-path="url(#SVGID_6_)">
				<g>
					<path display="none" fill="none" stroke="#000000" stroke-width="3" stroke-miterlimit="10" d="M323.581,177.248
						c-0.441,2.416-2.764,4.024-5.19,3.579c-2.426-0.444-4.026-2.771-3.583-5.188c0.443-2.422,2.765-4.024,5.19-3.58
						C322.424,172.505,324.026,174.825,323.581,177.248z"/>
					<path display="none" fill="none" stroke="#000000" stroke-width="3" stroke-miterlimit="10" d="M343.113,180.828
						c-2.421,13.204-15.091,21.951-28.303,19.53c-13.213-2.422-21.954-15.096-19.534-28.299
						c2.423-13.209,15.089-21.953,28.302-19.53C336.791,154.951,345.535,167.62,343.113,180.828z"/>
					<path display="none" fill="none" stroke="#000000" stroke-width="3" stroke-miterlimit="10" d="M362.642,184.409
						c-4.397,23.99-27.415,39.88-51.414,35.481c-23.996-4.4-39.878-27.422-35.479-51.412c4.398-23.996,27.411-39.881,51.409-35.481
						C351.157,137.396,367.042,160.413,362.642,184.409z"/>
					<path display="none" fill="none" stroke="#000000" stroke-width="3" stroke-miterlimit="10" d="M382.174,187.99
						c-6.376,34.778-39.741,57.808-74.527,51.43c-34.781-6.376-57.806-39.745-51.43-74.522
						c6.376-34.783,39.736-57.809,74.521-51.432C365.523,119.844,388.55,153.207,382.174,187.99z"/>
					<path display="none" fill="none" stroke="#000000" stroke-width="3" stroke-miterlimit="10" d="M401.704,191.57
						c-8.353,45.564-52.065,75.737-97.638,67.382c-45.568-8.354-75.732-52.07-67.379-97.635
						c8.354-45.569,52.062-75.737,97.632-67.382C379.89,102.289,410.058,146.001,401.704,191.57z"/>
					<path display="none" fill="none" stroke="#000000" stroke-width="3" stroke-miterlimit="10" d="M421.235,195.149
						c-10.331,56.352-64.393,93.664-120.749,83.333c-56.355-10.332-93.661-64.395-83.33-120.747
						c10.331-56.355,64.387-93.665,120.743-83.333C394.257,84.736,431.565,138.794,421.235,195.149z"/>
					<path fill="none" stroke="#000000" stroke-width="3" stroke-miterlimit="10" d="M440.766,198.731
						c-12.308,67.139-76.719,111.589-143.861,99.28c-67.141-12.308-111.587-76.716-99.279-143.855
						c12.309-67.142,76.712-111.593,143.855-99.283C408.623,67.182,453.075,131.588,440.766,198.731z"/>
					<path display="none" fill="none" stroke="#000000" stroke-width="3" stroke-miterlimit="10" d="M460.297,202.312
						c-14.286,77.925-89.044,129.517-166.973,115.229c-77.928-14.287-129.516-89.04-115.23-166.965
						c14.286-77.929,89.038-129.521,166.966-115.234S474.583,124.382,460.297,202.312z"/>
					<g display="none">
						<path display="inline" d="M319.012,13.104v3c9.686,0,19.472,0.894,29.087,2.657c42.119,7.722,78.711,31.383,103.033,66.625
							c24.322,35.242,33.464,77.847,25.742,119.966c-6.802,37.104-26.549,70.736-55.605,94.701
							c-28.71,23.682-64.896,36.725-101.892,36.725c-9.689,0-19.479-0.894-29.092-2.656c-42.117-7.721-78.708-31.383-103.029-66.621
							c-24.321-35.242-33.463-77.847-25.742-119.965c6.802-37.104,26.549-70.738,55.604-94.705
							c28.708-23.682,64.892-36.725,101.886-36.727L319.012,13.104 M319.004,13.104c-77.306,0.004-146.002,55.133-160.44,133.891
							c-16.264,88.713,42.465,173.814,131.18,190.078c9.958,1.825,19.859,2.705,29.633,2.705
							c77.309,0,146.011-55.132,160.448-133.885C496.09,117.175,437.357,32.074,348.64,15.81
							C338.682,13.984,328.779,13.104,319.004,13.104L319.004,13.104z"/>
					</g>
					<path display="none" fill="none" stroke="#000000" stroke-width="3" stroke-miterlimit="10" d="M499.358,209.473
						c-18.24,99.495-113.692,165.373-213.193,147.131c-99.502-18.241-165.372-113.69-147.131-213.19
						C157.275,43.912,252.72-21.963,352.22-3.721C451.723,14.521,517.599,109.969,499.358,209.473z"/>
				</g>
			</g>
		</g>
		<path fill="none" d="M409.012,330.496l-93.45-135.402l-135.405,93.448C231.771,363.327,334.227,382.108,409.012,330.496"/>
		<path fill="none" d="M164.896,266.43l135.403-93.451L206.85,37.572C132.063,89.187,113.283,191.645,164.896,266.43"/>
		<path fill="none" d="M473.496,86.458l-135.405,93.45l93.451,135.401C506.33,263.699,525.109,161.243,473.496,86.458"/>
	</g>
	<g id="oben_6_">
		<g>
			<defs>
				<path id="SVGID_7_" d="M230.342,3.624l93.448,135.406l135.405-93.452C407.582-29.208,305.125-47.989,230.342,3.624"/>
			</defs>
			<clipPath id="SVGID_8_">
				<use xlink:href="#SVGID_7_"  overflow="visible"/>
			</clipPath>
			<g clip-path="url(#SVGID_8_)">
				<g>
					<path display="none" fill="none" stroke="#000000" stroke-width="3" stroke-miterlimit="10" d="M324.957,158.56
						c-0.441,2.416-2.764,4.024-5.19,3.579c-2.426-0.444-4.026-2.771-3.583-5.188c0.443-2.422,2.765-4.024,5.19-3.58
						C323.8,153.817,325.402,156.137,324.957,158.56z"/>
					<path display="none" fill="none" stroke="#000000" stroke-width="3" stroke-miterlimit="10" d="M344.489,162.14
						c-2.421,13.204-15.091,21.951-28.303,19.53c-13.213-2.422-21.954-15.096-19.534-28.299
						c2.423-13.209,15.089-21.953,28.302-19.53C338.167,136.263,346.911,148.932,344.489,162.14z"/>
					<path fill="none" stroke="#000000" stroke-width="3" stroke-miterlimit="10" d="M364.018,165.721
						c-4.397,23.99-27.415,39.879-51.414,35.481c-23.997-4.4-39.879-27.421-35.479-51.412c4.398-23.996,27.411-39.881,51.409-35.481
						C352.533,118.708,368.417,141.725,364.018,165.721z"/>
					<path fill="none" stroke="#000000" stroke-width="3" stroke-miterlimit="10" d="M383.55,169.302
						c-6.376,34.777-39.741,57.809-74.527,51.43c-34.781-6.375-57.806-39.745-51.43-74.521
						c6.376-34.783,39.736-57.809,74.521-51.432C366.899,101.156,389.926,134.519,383.55,169.302z"/>
					<path display="none" fill="none" stroke="#000000" stroke-width="3" stroke-miterlimit="10" d="M403.08,172.882
						c-8.353,45.564-52.065,75.736-97.638,67.383c-45.568-8.355-75.732-52.071-67.379-97.635
						c8.354-45.569,52.062-75.737,97.632-67.382C381.266,83.601,411.434,127.313,403.08,172.882z"/>
					<path display="none" fill="none" stroke="#000000" stroke-width="3" stroke-miterlimit="10" d="M422.611,176.461
						c-10.331,56.352-64.393,93.667-120.749,83.334c-56.355-10.332-93.661-64.396-83.33-120.748
						c10.331-56.355,64.387-93.665,120.743-83.333C395.633,66.048,432.941,120.106,422.611,176.461z"/>
					<path display="none" fill="none" stroke="#000000" stroke-width="3" stroke-miterlimit="10" d="M442.142,180.043
						c-12.308,67.14-76.719,111.59-143.861,99.284c-67.141-12.31-111.587-76.72-99.279-143.859
						c12.309-67.142,76.712-111.593,143.855-99.283C409.999,48.494,454.451,112.9,442.142,180.043z"/>
					<path display="none" fill="none" stroke="#000000" stroke-width="3" stroke-miterlimit="10" d="M461.673,183.624
						c-14.286,77.926-89.044,129.518-166.973,115.229c-77.928-14.285-129.516-89.039-115.23-166.965
						C193.757,53.958,268.508,2.367,346.437,16.653S475.958,105.694,461.673,183.624z"/>
					<g display="none">
						<path display="inline" d="M320.388-5.584v3c9.686,0,19.472,0.894,29.087,2.657c42.119,7.722,78.711,31.383,103.033,66.625
							c24.322,35.242,33.464,77.847,25.742,119.966c-6.802,37.103-26.549,70.737-55.605,94.705
							c-28.71,23.679-64.896,36.722-101.892,36.722c-9.69,0-19.479-0.894-29.093-2.656c-42.117-7.721-78.707-31.38-103.028-66.621
							c-24.321-35.243-33.463-77.847-25.742-119.965c6.802-37.104,26.549-70.738,55.604-94.705
							C247.202,10.461,283.386-2.582,320.38-2.584L320.388-5.584 M320.38-5.584C243.074-5.58,174.378,49.549,159.94,128.307
							c-16.264,88.713,42.465,173.814,131.18,190.078c9.958,1.825,19.859,2.705,29.634,2.705
							c77.309,0,146.011-55.13,160.448-133.886C497.466,98.487,438.733,13.386,350.016-2.878
							C340.058-4.704,330.155-5.584,320.38-5.584L320.38-5.584z"/>
					</g>
					<path display="none" fill="none" stroke="#000000" stroke-width="3" stroke-miterlimit="10" d="M500.734,190.785
						c-18.24,99.497-113.692,165.372-213.193,147.132c-99.502-18.242-165.372-113.691-147.131-213.19
						C158.651,25.224,254.096-40.651,353.596-22.409C453.099-4.167,518.975,91.281,500.734,190.785z"/>
				</g>
			</g>
		</g>
		<path fill="none" d="M410.388,311.807l-93.45-135.401l-135.405,93.451C233.147,344.639,335.603,363.42,410.388,311.807"/>
		<path fill="none" d="M166.272,247.741l135.403-93.45l-93.45-135.407C133.439,70.499,114.659,172.957,166.272,247.741"/>
		<path fill="none" d="M474.872,67.77l-135.405,93.45l93.451,135.403C507.706,245.011,526.485,142.555,474.872,67.77"/>
	</g>
	<g id="oben_links_3_">
		<defs>
			
				<rect id="SVGID_9_" x="128.886" y="102.333" transform="matrix(0.1219 -0.9925 0.9925 0.1219 7.165 290.4316)" width="77.665" height="77.667"/>
		</defs>
		<clipPath id="SVGID_10_">
			<use xlink:href="#SVGID_9_"  overflow="visible"/>
		</clipPath>
		<g clip-path="url(#SVGID_10_)">
			<path fill="none" stroke="#000000" stroke-width="3" stroke-miterlimit="10" d="M225.848,184.442
				c0,13.423-10.885,24.313-24.318,24.313c-13.432,0-24.315-10.889-24.315-24.313c0-13.43,10.883-24.313,24.315-24.313
				C214.963,160.129,225.848,171.013,225.848,184.442z"/>
			<path display="none" fill="none" stroke="#000000" stroke-width="3" stroke-miterlimit="10" d="M245.704,184.442
				c0,24.391-19.775,44.17-44.174,44.17c-24.398,0-44.171-19.779-44.171-44.17c0-24.396,19.773-44.17,44.171-44.17
				C225.928,140.272,245.704,160.046,245.704,184.442z"/>
			<path fill="none" stroke="#000000" stroke-width="3" stroke-miterlimit="10" d="M265.559,184.442
				c0,35.357-28.664,64.027-64.029,64.027c-35.364,0-64.028-28.67-64.028-64.027c0-35.362,28.664-64.027,64.028-64.027
				C236.895,120.416,265.559,149.08,265.559,184.442z"/>
		</g>
	</g>
	<g id="links_3_">
		<g>
			<defs>
				<path id="SVGID_11_" d="M101.775,416.936l51.456-156.264l-156.27-51.458C-31.459,295.521,15.467,388.516,101.775,416.936"/>
			</defs>
			<clipPath id="SVGID_12_">
				<use xlink:href="#SVGID_11_"  overflow="visible"/>
			</clipPath>
			<g clip-path="url(#SVGID_12_)">
				<g>
					<path fill="none" stroke="#000000" stroke-width="3" stroke-miterlimit="10" d="M209.633,232.213
						c10.986,21.774,2.242,48.34-19.541,59.33c-21.782,10.988-48.346,2.239-59.333-19.533c-10.99-21.781-2.245-48.343,19.538-59.333
						C172.08,201.687,198.643,210.433,209.633,232.213z"/>
					<path fill="none" stroke="#000000" stroke-width="3" stroke-miterlimit="10" d="M227.36,223.269
						c15.927,31.565,3.251,70.071-28.323,86c-31.572,15.932-70.078,3.247-86.006-28.315c-15.93-31.571-3.251-70.074,28.32-86.005
						C172.926,179.018,211.43,191.696,227.36,223.269z"/>
					<path fill="none" stroke="#000000" stroke-width="3" stroke-miterlimit="10" d="M245.089,214.323
						c20.867,41.356,4.256,91.802-37.107,112.672c-41.364,20.871-91.81,4.256-112.677-37.099
						c-20.87-41.36-4.261-91.805,37.103-112.676C173.77,156.351,224.217,172.96,245.089,214.323z"/>
				</g>
			</g>
		</g>
		<path fill="none" d="M335.021,320.527l-156.267-51.453L127.298,425.34C213.607,453.76,306.602,406.834,335.021,320.527"/>
		<path fill="none" d="M238.614,87.283l-51.457,156.269l156.268,51.454C371.846,208.699,324.919,115.702,238.614,87.283"/>
		<path fill="none" d="M5.366,183.691l156.269,51.457l51.457-156.271C126.781,50.457,33.785,97.384,5.366,183.691"/>
	</g>
</g>
<g id="Wolke_1_">
	<path fill="none" stroke="#000000" stroke-width="9" stroke-linecap="round" stroke-linejoin="round" stroke-miterlimit="10" d="
		M422.136,189.345c20.094,10.802,33.753,32.021,33.753,56.433c0,35.355-28.669,63.432-64.029,64.022
		c-26.258,0.438-66.996-11.99-106.331-10.693c-43.704,1.44-86.159,16.611-115.334,17.028c-35.36,0.505-64.028-28.667-64.028-64.022
		c0-30.943,21.946-56.757,51.124-62.727l0.336-0.038c-0.178-1.61-0.269-3.247-0.269-4.905c0-24.396,19.773-44.17,44.171-44.17
		c6.777,0,13.198,1.526,18.937,4.252l-0.007-0.002c13.462-41.676,52.577-71.82,98.734-71.82c57.297,0,103.742,46.445,103.742,103.74
		c0,4.37-0.271,8.677-0.795,12.906L422.136,189.345z"/>
</g>
<g id="SensorCloud_Pantone_Cool_Gray_7c" display="none">
	<g display="inline">
		<path fill="#97999B" d="M142.972,388.524c0,3.821-1.335,6.951-4.004,9.39c-2.9,2.579-6.928,3.867-12.083,3.867
			c-4.833,0-8.7-0.943-11.6-2.831l1.519-4.971c3.13,1.979,6.628,2.969,10.495,2.969c2.992,0,5.339-0.726,7.042-2.175
			c1.702-1.45,2.555-3.372,2.555-5.766c0-2.163-0.668-3.958-2.002-5.385c-1.335-1.427-3.545-2.716-6.628-3.867
			c-8.056-3.037-12.083-7.433-12.083-13.187c0-3.636,1.381-6.64,4.143-9.011c2.762-2.37,6.352-3.556,10.771-3.556
			c4.096,0,7.433,0.737,10.011,2.21l-1.657,4.901c-2.394-1.473-5.247-2.209-8.561-2.209c-2.854,0-5.086,0.76-6.697,2.278
			c-1.289,1.289-1.933,2.854-1.933,4.695c0,2.071,0.713,3.797,2.14,5.178c1.334,1.197,3.636,2.463,6.904,3.798
			c4.004,1.611,6.95,3.476,8.837,5.592C142.028,382.564,142.972,385.256,142.972,388.524z"/>
		<path fill="#97999B" d="M175.98,382.586c0,1.197-0.069,2.187-0.207,2.969h-22.922c0.092,3.913,1.243,6.882,3.452,8.906
			c1.934,1.796,4.533,2.693,7.802,2.693c3.314,0,6.305-0.553,8.976-1.657l1.036,4.28c-2.993,1.289-6.628,1.934-10.909,1.934
			c-4.971,0-8.896-1.507-11.771-4.522c-2.877-3.014-4.315-7.077-4.315-12.186c0-5.201,1.392-9.494,4.177-12.877
			c2.784-3.383,6.524-5.074,11.219-5.074c4.74,0,8.308,1.818,10.702,5.454C175.06,375.314,175.98,378.674,175.98,382.586z
			 M170.181,381.206c0.045-2.531-0.483-4.671-1.588-6.421c-1.427-2.255-3.614-3.383-6.559-3.383c-2.762,0-4.971,1.104-6.628,3.313
			c-1.335,1.795-2.164,3.959-2.485,6.49H170.181z"/>
		<path fill="#97999B" d="M209.769,401.228h-6.006v-19.401c0-6.535-2.509-9.804-7.526-9.804c-2.394,0-4.384,0.909-5.972,2.728
			s-2.382,3.924-2.382,6.317v20.16h-6.007v-24.372c0-2.762-0.093-5.776-0.276-9.045h5.316l0.345,5.386h0.138
			c0.92-1.702,2.254-3.107,4.004-4.212c2.025-1.242,4.303-1.864,6.835-1.864c2.945,0,5.431,0.922,7.457,2.762
			c2.715,2.485,4.073,6.238,4.073,11.254V401.228z"/>
		<path fill="#97999B" d="M236.378,391.908c0,2.992-1.104,5.385-3.314,7.18c-2.209,1.796-5.225,2.693-9.045,2.693
			c-3.545,0-6.605-0.714-9.183-2.141l1.45-4.557c2.485,1.565,5.109,2.348,7.871,2.348c4.281,0,6.421-1.657,6.421-4.972
			c0-1.426-0.46-2.6-1.381-3.521c-0.921-0.92-2.485-1.795-4.695-2.623c-5.846-2.21-8.769-5.361-8.769-9.459
			c0-2.762,1.046-5.075,3.142-6.938c2.094-1.864,4.844-2.797,8.25-2.797c3.176,0,5.869,0.668,8.078,2.003l-1.519,4.418
			c-2.026-1.288-4.258-1.933-6.697-1.933c-1.704,0-3.038,0.426-4.005,1.277c-0.966,0.852-1.45,1.944-1.45,3.279
			c0,1.289,0.506,2.348,1.519,3.176c0.829,0.783,2.393,1.612,4.695,2.485C233.501,384.083,236.378,387.443,236.378,391.908z"/>
		<path fill="#97999B" d="M272.177,384.244c0,5.109-1.405,9.298-4.211,12.565c-2.993,3.36-6.997,5.04-12.014,5.04
			c-4.833,0-8.699-1.633-11.599-4.901c-2.716-3.222-4.074-7.272-4.074-12.152c0-5.108,1.404-9.297,4.212-12.565
			c2.991-3.405,6.996-5.109,12.013-5.109c4.833,0,8.7,1.657,11.599,4.972C270.818,375.268,272.177,379.319,272.177,384.244z
			 M266.032,384.451c0-3.359-0.783-6.236-2.347-8.631c-1.795-2.807-4.281-4.211-7.457-4.211c-3.269,0-5.8,1.404-7.595,4.211
			c-1.565,2.395-2.348,5.316-2.348,8.769c0,3.314,0.805,6.191,2.417,8.631c1.795,2.808,4.281,4.212,7.457,4.212
			c3.13,0,5.615-1.427,7.457-4.281C265.226,390.665,266.032,387.765,266.032,384.451z"/>
		<path fill="#97999B" d="M294.518,372.92c-0.599-0.092-1.289-0.138-2.071-0.138c-2.716,0-4.81,1.128-6.283,3.383
			c-1.335,1.979-2.002,4.373-2.002,7.181v17.882h-5.938v-23.129c0-3.591-0.093-7.02-0.276-10.288h5.316l0.276,6.49h0.207
			c0.735-2.209,1.944-3.958,3.625-5.247c1.68-1.288,3.508-1.934,5.488-1.934c0.645,0,1.196,0.047,1.657,0.139V372.92z"/>
		<path fill="#97999B" d="M332.062,356.005l-1.449,4.833c-2.578-1.243-5.593-1.864-9.045-1.864c-5.386,0-9.644,1.656-12.772,4.971
			c-3.27,3.407-4.902,8.147-4.902,14.223c0,5.8,1.541,10.368,4.626,13.705c3.083,3.338,7.341,5.006,12.772,5.006
			c3.773,0,6.95-0.621,9.528-1.864l1.174,4.764c-2.854,1.336-6.836,2.003-11.944,2.003c-6.629,0-11.969-1.956-16.019-5.869
			c-4.28-4.234-6.421-10.08-6.421-17.537c0-7.363,2.197-13.267,6.594-17.709c4.396-4.441,10.115-6.663,17.157-6.663
			C326.009,354.002,329.577,354.67,332.062,356.005z"/>
		<path fill="#97999B" d="M342.929,401.228h-6.007v-48.951h6.007V401.228z"/>
		<path fill="#97999B" d="M381.076,384.244c0,5.109-1.404,9.298-4.212,12.565c-2.992,3.36-6.997,5.04-12.014,5.04
			c-4.833,0-8.699-1.633-11.599-4.901c-2.717-3.222-4.073-7.272-4.073-12.152c0-5.108,1.403-9.297,4.211-12.565
			c2.992-3.405,6.996-5.109,12.014-5.109c4.833,0,8.699,1.657,11.6,4.972C379.717,375.268,381.076,379.319,381.076,384.244z
			 M374.931,384.451c0-3.359-0.783-6.236-2.348-8.631c-1.795-2.807-4.281-4.211-7.457-4.211c-3.269,0-5.8,1.404-7.595,4.211
			c-1.565,2.395-2.348,5.316-2.348,8.769c0,3.314,0.806,6.191,2.417,8.631c1.795,2.808,4.28,4.212,7.457,4.212
			c3.129,0,5.614-1.427,7.456-4.281C374.125,390.665,374.931,387.765,374.931,384.451z"/>
		<path fill="#97999B" d="M414.775,401.228h-5.316l-0.345-5.316h-0.207c-2.303,3.959-5.893,5.938-10.771,5.938
			c-3.13,0-5.661-0.942-7.595-2.83c-2.439-2.486-3.659-6.328-3.659-11.53v-19.678h6.007v18.573c0,7.088,2.417,10.632,7.25,10.632
			c1.84,0,3.521-0.598,5.04-1.795c1.288-1.012,2.209-2.255,2.762-3.729c0.367-0.92,0.552-1.955,0.552-3.106v-20.575h6.007v24.304
			C414.499,395.107,414.59,398.145,414.775,401.228z"/>
		<path fill="#97999B" d="M451.415,401.228h-5.385l-0.276-5.661h-0.138c-2.164,4.188-5.847,6.282-11.047,6.282
			c-4.051,0-7.399-1.553-10.046-4.66c-2.647-3.106-3.97-7.169-3.97-12.186c0-5.431,1.449-9.827,4.35-13.188
			c2.762-3.13,6.189-4.695,10.287-4.695c4.695,0,7.963,1.657,9.804,4.972h0.139v-19.815h6.007v40.39
			C451.139,395.705,451.231,398.559,451.415,401.228z M445.132,387.35v-6.007c0-1.012-0.069-1.863-0.207-2.554
			c-0.461-1.979-1.462-3.636-3.004-4.972c-1.542-1.334-3.395-2.002-5.558-2.002c-2.993,0-5.375,1.208-7.146,3.625
			c-1.772,2.416-2.658,5.488-2.658,9.217c0,3.59,0.829,6.514,2.486,8.769c1.748,2.485,4.143,3.729,7.18,3.729
			c2.624,0,4.787-1.012,6.49-3.038C444.327,392.23,445.132,389.974,445.132,387.35z"/>
	</g>
</g>
<g id="Strahlen_Pantone_Cool_Gray_7c" display="none">
	<g id="Mitte_1_" display="inline">
		<defs>
			
				<rect id="SVGID_13_" x="198.452" y="190.345" transform="matrix(0.766 0.6428 -0.6428 0.766 248.7599 -120.324)" width="182.441" height="182.445"/>
		</defs>
		<clipPath id="SVGID_14_">
			<use xlink:href="#SVGID_13_"  overflow="visible"/>
		</clipPath>
		<g clip-path="url(#SVGID_14_)">
			<path display="none" fill="none" stroke="#97999B" stroke-width="3" stroke-miterlimit="10" d="M342.95,165.182
				c0,35.357-28.665,64.027-64.028,64.027s-64.027-28.67-64.027-64.027c0-35.362,28.664-64.027,64.027-64.027
				S342.95,129.82,342.95,165.182z"/>
			<path display="none" fill="none" stroke="#97999B" stroke-width="3" stroke-miterlimit="10" d="M362.806,165.182
				c0,46.324-37.556,83.883-83.885,83.883c-46.33,0-83.883-37.56-83.883-83.883c0-46.329,37.553-83.884,83.883-83.884
				C325.25,81.298,362.806,118.854,362.806,165.182z"/>
			<path fill="none" stroke="#97999B" stroke-width="3" stroke-miterlimit="10" d="M382.662,165.182
				c0,57.291-46.445,103.741-103.74,103.741c-57.296,0-103.739-46.45-103.739-103.741c0-57.295,46.443-103.74,103.739-103.74
				C336.216,61.442,382.662,107.887,382.662,165.182z"/>
			
				<circle display="none" fill="none" stroke="#97999B" stroke-width="3" stroke-miterlimit="10" cx="278.923" cy="165.182" r="123.596"/>
		</g>
	</g>
	<g id="rechts_2_" display="inline">
		<defs>
			
				<rect id="SVGID_15_" x="407.779" y="224.264" transform="matrix(0.2924 0.9563 -0.9563 0.2924 609.5028 -247.1791)" width="127.992" height="127.999"/>
		</defs>
		<clipPath id="SVGID_16_">
			<use xlink:href="#SVGID_15_"  overflow="visible"/>
		</clipPath>
		<g clip-path="url(#SVGID_16_)">
			<path fill="none" stroke="#97999B" stroke-width="3" stroke-miterlimit="10" d="M436.034,245.777
				c0,24.39-19.775,44.167-44.174,44.167c-24.397,0-44.171-19.777-44.171-44.167c0-24.396,19.773-44.171,44.171-44.171
				C416.258,201.606,436.034,221.381,436.034,245.777z"/>
			<path display="none" fill="none" stroke="#97999B" stroke-width="3" stroke-miterlimit="10" d="M455.889,245.777
				c0,35.355-28.664,64.022-64.029,64.022c-35.363,0-64.027-28.667-64.027-64.022c0-35.363,28.664-64.027,64.027-64.027
				C427.225,181.75,455.889,210.414,455.889,245.777z"/>
			<path fill="none" stroke="#97999B" stroke-width="3" stroke-miterlimit="10" d="M475.747,245.777
				c0,46.32-37.557,83.877-83.887,83.877s-83.883-37.557-83.883-83.877c0-46.329,37.553-83.884,83.883-83.884
				S475.747,199.448,475.747,245.777z"/>
		</g>
	</g>
	<g id="oben_3_" display="inline">
		<g>
			<defs>
				<path id="SVGID_17_" d="M228.966,22.312l93.448,135.406L457.82,64.266C406.206-10.521,303.75-29.301,228.966,22.312"/>
			</defs>
			<clipPath id="SVGID_18_">
				<use xlink:href="#SVGID_17_"  overflow="visible"/>
			</clipPath>
			<g clip-path="url(#SVGID_18_)">
				<g>
					<path display="none" fill="none" stroke="#97999B" stroke-width="3" stroke-miterlimit="10" d="M323.581,177.248
						c-0.441,2.416-2.764,4.024-5.19,3.579c-2.426-0.444-4.026-2.771-3.583-5.188c0.443-2.422,2.765-4.024,5.19-3.58
						C322.424,172.505,324.026,174.825,323.581,177.248z"/>
					<path display="none" fill="none" stroke="#97999B" stroke-width="3" stroke-miterlimit="10" d="M343.113,180.828
						c-2.421,13.204-15.091,21.951-28.303,19.53c-13.213-2.422-21.954-15.096-19.534-28.299
						c2.423-13.209,15.089-21.953,28.302-19.53C336.791,154.951,345.535,167.62,343.113,180.828z"/>
					<path display="none" fill="none" stroke="#97999B" stroke-width="3" stroke-miterlimit="10" d="M362.642,184.409
						c-4.397,23.99-27.415,39.88-51.414,35.481c-23.996-4.4-39.878-27.422-35.479-51.412c4.398-23.996,27.411-39.881,51.409-35.481
						C351.157,137.396,367.042,160.413,362.642,184.409z"/>
					<path display="none" fill="none" stroke="#97999B" stroke-width="3" stroke-miterlimit="10" d="M382.174,187.99
						c-6.376,34.778-39.741,57.808-74.527,51.43c-34.781-6.376-57.806-39.745-51.43-74.522
						c6.376-34.783,39.736-57.809,74.521-51.432C365.523,119.844,388.55,153.207,382.174,187.99z"/>
					<path display="none" fill="none" stroke="#97999B" stroke-width="3" stroke-miterlimit="10" d="M401.704,191.57
						c-8.353,45.564-52.065,75.737-97.638,67.382c-45.568-8.354-75.732-52.07-67.379-97.635
						c8.354-45.569,52.062-75.737,97.632-67.382C379.89,102.289,410.058,146.001,401.704,191.57z"/>
					<path display="none" fill="none" stroke="#97999B" stroke-width="3" stroke-miterlimit="10" d="M421.235,195.149
						c-10.331,56.352-64.393,93.664-120.749,83.333c-56.355-10.332-93.661-64.395-83.33-120.747
						c10.331-56.355,64.387-93.665,120.743-83.333C394.257,84.736,431.565,138.794,421.235,195.149z"/>
					<path fill="none" stroke="#97999B" stroke-width="3" stroke-miterlimit="10" d="M440.766,198.731
						c-12.308,67.139-76.719,111.589-143.861,99.28c-67.141-12.308-111.587-76.716-99.279-143.855
						c12.309-67.142,76.712-111.593,143.855-99.283C408.623,67.182,453.075,131.588,440.766,198.731z"/>
					<path display="none" fill="none" stroke="#97999B" stroke-width="3" stroke-miterlimit="10" d="M460.297,202.312
						c-14.286,77.925-89.044,129.517-166.973,115.229c-77.928-14.287-129.516-89.04-115.23-166.965
						c14.286-77.929,89.038-129.521,166.966-115.234S474.583,124.382,460.297,202.312z"/>
					<g display="none">
						<path display="inline" fill="#97999B" d="M319.012,13.104v3c9.686,0,19.472,0.894,29.087,2.657
							c42.119,7.722,78.711,31.383,103.033,66.625c24.322,35.242,33.464,77.847,25.742,119.966
							c-6.802,37.103-26.549,70.736-55.605,94.701c-28.71,23.682-64.896,36.725-101.892,36.725c-9.689,0-19.479-0.894-29.092-2.656
							c-42.117-7.721-78.708-31.383-103.029-66.621c-24.321-35.242-33.463-77.846-25.742-119.964
							c6.802-37.104,26.549-70.738,55.604-94.705c28.708-23.682,64.892-36.725,101.886-36.727L319.012,13.104 M319.004,13.104
							c-77.306,0.004-146.002,55.133-160.44,133.891c-16.264,88.713,42.465,173.814,131.18,190.078
							c9.958,1.825,19.859,2.705,29.633,2.705c77.309,0,146.011-55.132,160.448-133.885C496.09,117.175,437.357,32.074,348.64,15.81
							C338.682,13.984,328.779,13.104,319.004,13.104L319.004,13.104z"/>
					</g>
					<path display="none" fill="none" stroke="#97999B" stroke-width="3" stroke-miterlimit="10" d="M499.358,209.473
						c-18.24,99.495-113.692,165.373-213.193,147.131c-99.502-18.241-165.372-113.69-147.131-213.19
						C157.275,43.912,252.72-21.963,352.22-3.721C451.723,14.521,517.599,109.969,499.358,209.473z"/>
				</g>
			</g>
		</g>
		<path fill="none" d="M409.012,330.496l-93.45-135.402l-135.405,93.448C231.771,363.327,334.227,382.108,409.012,330.496"/>
		<path fill="none" d="M164.896,266.43l135.403-93.451L206.85,37.572C132.063,89.187,113.283,191.645,164.896,266.43"/>
		<path fill="none" d="M473.496,86.458l-135.405,93.45l93.451,135.401C506.33,263.699,525.109,161.243,473.496,86.458"/>
	</g>
	<g id="oben_2_" display="inline">
		<g>
			<defs>
				<path id="SVGID_19_" d="M230.342,3.624l93.448,135.406l135.405-93.452C407.582-29.208,305.125-47.989,230.342,3.624"/>
			</defs>
			<clipPath id="SVGID_20_">
				<use xlink:href="#SVGID_19_"  overflow="visible"/>
			</clipPath>
			<g clip-path="url(#SVGID_20_)">
				<g>
					<path display="none" fill="none" stroke="#97999B" stroke-width="3" stroke-miterlimit="10" d="M324.957,158.56
						c-0.441,2.416-2.764,4.024-5.19,3.579c-2.426-0.444-4.026-2.771-3.583-5.188c0.443-2.422,2.765-4.024,5.19-3.58
						C323.8,153.817,325.402,156.137,324.957,158.56z"/>
					<path display="none" fill="none" stroke="#97999B" stroke-width="3" stroke-miterlimit="10" d="M344.489,162.14
						c-2.421,13.204-15.091,21.951-28.303,19.53c-13.213-2.422-21.954-15.096-19.534-28.299
						c2.423-13.209,15.089-21.953,28.302-19.53C338.167,136.263,346.911,148.932,344.489,162.14z"/>
					<path fill="none" stroke="#97999B" stroke-width="3" stroke-miterlimit="10" d="M364.018,165.721
						c-4.397,23.99-27.415,39.879-51.414,35.481c-23.997-4.4-39.879-27.421-35.479-51.412c4.398-23.996,27.411-39.881,51.409-35.481
						C352.533,118.708,368.417,141.725,364.018,165.721z"/>
					<path fill="none" stroke="#97999B" stroke-width="3" stroke-miterlimit="10" d="M383.55,169.302
						c-6.376,34.777-39.741,57.809-74.527,51.43c-34.781-6.375-57.806-39.745-51.43-74.521
						c6.376-34.783,39.736-57.809,74.521-51.432C366.899,101.156,389.926,134.519,383.55,169.302z"/>
					<path display="none" fill="none" stroke="#97999B" stroke-width="3" stroke-miterlimit="10" d="M403.08,172.882
						c-8.353,45.564-52.065,75.736-97.638,67.383c-45.568-8.355-75.732-52.071-67.379-97.635
						c8.354-45.569,52.062-75.737,97.632-67.382C381.266,83.601,411.434,127.313,403.08,172.882z"/>
					<path display="none" fill="none" stroke="#97999B" stroke-width="3" stroke-miterlimit="10" d="M422.611,176.461
						c-10.331,56.352-64.393,93.667-120.749,83.334c-56.355-10.332-93.661-64.396-83.33-120.748
						c10.331-56.355,64.387-93.665,120.743-83.333C395.633,66.048,432.941,120.106,422.611,176.461z"/>
					<path display="none" fill="none" stroke="#97999B" stroke-width="3" stroke-miterlimit="10" d="M442.142,180.043
						c-12.308,67.14-76.719,111.59-143.861,99.284c-67.141-12.31-111.587-76.72-99.279-143.859
						c12.309-67.142,76.712-111.593,143.855-99.283C409.999,48.494,454.451,112.9,442.142,180.043z"/>
					<path display="none" fill="none" stroke="#97999B" stroke-width="3" stroke-miterlimit="10" d="M461.673,183.624
						c-14.286,77.926-89.044,129.518-166.973,115.229c-77.928-14.285-129.516-89.039-115.23-166.965
						C193.757,53.958,268.508,2.367,346.437,16.653S475.958,105.694,461.673,183.624z"/>
					<g display="none">
						<path display="inline" fill="#97999B" d="M320.388-5.584v3c9.686,0,19.472,0.894,29.087,2.657
							c42.119,7.722,78.711,31.383,103.033,66.625c24.322,35.242,33.464,77.847,25.742,119.966
							c-6.802,37.103-26.549,70.737-55.605,94.705c-28.71,23.679-64.896,36.722-101.892,36.722c-9.69,0-19.479-0.894-29.093-2.656
							c-42.117-7.721-78.707-31.38-103.028-66.621c-24.321-35.242-33.463-77.847-25.742-119.965
							c6.802-37.104,26.549-70.738,55.604-94.705C247.202,10.461,283.386-2.582,320.38-2.584L320.388-5.584 M320.38-5.584
							C243.074-5.58,174.378,49.549,159.94,128.307c-16.264,88.713,42.465,173.814,131.18,190.078
							c9.958,1.825,19.859,2.705,29.634,2.705c77.309,0,146.011-55.131,160.448-133.886
							C497.466,98.487,438.733,13.386,350.016-2.878C340.058-4.704,330.155-5.584,320.38-5.584L320.38-5.584z"/>
					</g>
					<path display="none" fill="none" stroke="#97999B" stroke-width="3" stroke-miterlimit="10" d="M500.734,190.785
						c-18.24,99.497-113.692,165.372-213.193,147.132c-99.502-18.242-165.372-113.691-147.131-213.19
						C158.651,25.224,254.096-40.651,353.596-22.409C453.099-4.167,518.975,91.281,500.734,190.785z"/>
				</g>
			</g>
		</g>
		<path fill="none" d="M410.388,311.807l-93.45-135.401l-135.405,93.451C233.147,344.639,335.603,363.42,410.388,311.807"/>
		<path fill="none" d="M166.272,247.741l135.403-93.45l-93.45-135.407C133.439,70.499,114.659,172.957,166.272,247.741"/>
		<path fill="none" d="M474.872,67.77l-135.405,93.45l93.451,135.403C507.706,245.011,526.485,142.555,474.872,67.77"/>
	</g>
	<g id="oben_links_1_" display="inline">
		<defs>
			
				<rect id="SVGID_21_" x="128.886" y="102.333" transform="matrix(0.1219 -0.9925 0.9925 0.1219 7.165 290.4316)" width="77.665" height="77.667"/>
		</defs>
		<clipPath id="SVGID_22_">
			<use xlink:href="#SVGID_21_"  overflow="visible"/>
		</clipPath>
		<g clip-path="url(#SVGID_22_)">
			<path fill="none" stroke="#97999B" stroke-width="3" stroke-miterlimit="10" d="M225.848,184.442
				c0,13.423-10.885,24.313-24.318,24.313c-13.432,0-24.315-10.889-24.315-24.313c0-13.43,10.883-24.313,24.315-24.313
				C214.963,160.129,225.848,171.013,225.848,184.442z"/>
			<path display="none" fill="none" stroke="#97999B" stroke-width="3" stroke-miterlimit="10" d="M245.704,184.442
				c0,24.391-19.775,44.17-44.174,44.17c-24.398,0-44.171-19.779-44.171-44.17c0-24.396,19.773-44.17,44.171-44.17
				C225.928,140.272,245.704,160.046,245.704,184.442z"/>
			<path fill="none" stroke="#97999B" stroke-width="3" stroke-miterlimit="10" d="M265.559,184.442
				c0,35.357-28.664,64.027-64.029,64.027c-35.364,0-64.028-28.67-64.028-64.027c0-35.362,28.664-64.027,64.028-64.027
				C236.895,120.416,265.559,149.08,265.559,184.442z"/>
		</g>
	</g>
	<g id="links_1_" display="inline">
		<g>
			<defs>
				<path id="SVGID_23_" d="M101.775,416.936l51.456-156.264l-156.27-51.458C-31.459,295.521,15.467,388.516,101.775,416.936"/>
			</defs>
			<clipPath id="SVGID_24_">
				<use xlink:href="#SVGID_23_"  overflow="visible"/>
			</clipPath>
			<g clip-path="url(#SVGID_24_)">
				<g>
					<path fill="none" stroke="#97999B" stroke-width="3" stroke-miterlimit="10" d="M209.633,232.213
						c10.986,21.774,2.242,48.34-19.541,59.33c-21.782,10.988-48.346,2.239-59.333-19.533c-10.99-21.781-2.245-48.343,19.538-59.333
						C172.08,201.687,198.643,210.433,209.633,232.213z"/>
					<path fill="none" stroke="#97999B" stroke-width="3" stroke-miterlimit="10" d="M227.36,223.269
						c15.927,31.565,3.251,70.071-28.323,86c-31.572,15.932-70.078,3.247-86.006-28.315c-15.93-31.571-3.251-70.074,28.32-86.005
						C172.926,179.018,211.43,191.696,227.36,223.269z"/>
					<path fill="none" stroke="#97999B" stroke-width="3" stroke-miterlimit="10" d="M245.089,214.323
						c20.867,41.356,4.256,91.802-37.107,112.672c-41.364,20.871-91.81,4.256-112.677-37.099
						c-20.87-41.36-4.261-91.805,37.103-112.676C173.77,156.351,224.217,172.96,245.089,214.323z"/>
				</g>
			</g>
		</g>
		<path fill="none" d="M335.021,320.527l-156.267-51.453L127.298,425.34C213.607,453.76,306.602,406.834,335.021,320.527"/>
		<path fill="none" d="M238.614,87.283l-51.457,156.269l156.268,51.454C371.846,208.699,324.919,115.702,238.614,87.283"/>
		<path fill="none" d="M5.366,183.691l156.269,51.457l51.457-156.271C126.781,50.457,33.785,97.384,5.366,183.691"/>
	</g>
</g>
<g id="Wolke_Pantone_306c" display="none">
	
		<path id="Wolke_2_" display="inline" fill="none" stroke="#00B5E2" stroke-width="9" stroke-linecap="round" stroke-linejoin="round" stroke-miterlimit="10" d="
		M422.136,189.345c20.094,10.802,33.753,32.021,33.753,56.433c0,35.355-28.669,63.432-64.029,64.022
		c-26.258,0.438-66.996-11.99-106.331-10.693c-43.704,1.44-86.159,16.611-115.334,17.028c-35.36,0.505-64.028-28.667-64.028-64.022
		c0-30.943,21.946-56.757,51.124-62.727l0.336-0.038c-0.178-1.61-0.269-3.247-0.269-4.905c0-24.396,19.773-44.17,44.171-44.17
		c6.777,0,13.198,1.526,18.937,4.252l-0.007-0.002c13.462-41.676,52.577-71.82,98.734-71.82c57.297,0,103.742,46.445,103.742,103.74
		c0,4.37-0.271,8.677-0.795,12.906L422.136,189.345z"/>
</g>
</svg>
